solid OpenSCAD_Model
  facet normal -0 0 1
    outer loop
      vertex -7.15 12.4 0.9
      vertex 7.15 -12.4 0.9
      vertex 7.15 12.4 0.9
    endloop
  endfacet
  facet normal 0 0 1
    outer loop
      vertex 7.15 -12.4 0.9
      vertex -7.15 12.4 0.9
      vertex -7.15 -12.4 0.9
    endloop
  endfacet
  facet normal 0 0 -1
    outer loop
      vertex -7.15 -12.4 0
      vertex 7.15 12.4 0
      vertex 7.15 -12.4 0
    endloop
  endfacet
  facet normal -0 0 -1
    outer loop
      vertex 7.15 12.4 0
      vertex -7.15 -12.4 0
      vertex -7.15 12.4 0
    endloop
  endfacet
  facet normal 0 -1 0
    outer loop
      vertex -7.15 -12.4 0
      vertex 7.15 -12.4 0.9
      vertex -7.15 -12.4 0.9
    endloop
  endfacet
  facet normal 0 -1 -0
    outer loop
      vertex 7.15 -12.4 0.9
      vertex -7.15 -12.4 0
      vertex 7.15 -12.4 0
    endloop
  endfacet
  facet normal 1 -0 0
    outer loop
      vertex 7.15 -12.4 0.9
      vertex 7.15 12.4 0
      vertex 7.15 12.4 0.9
    endloop
  endfacet
  facet normal 1 0 0
    outer loop
      vertex 7.15 12.4 0
      vertex 7.15 -12.4 0.9
      vertex 7.15 -12.4 0
    endloop
  endfacet
  facet normal 0 1 -0
    outer loop
      vertex 7.15 12.4 0
      vertex -7.15 12.4 0.9
      vertex 7.15 12.4 0.9
    endloop
  endfacet
  facet normal 0 1 0
    outer loop
      vertex -7.15 12.4 0.9
      vertex 7.15 12.4 0
      vertex -7.15 12.4 0
    endloop
  endfacet
  facet normal -1 0 0
    outer loop
      vertex -7.15 -12.4 0
      vertex -7.15 12.4 0.9
      vertex -7.15 12.4 0
    endloop
  endfacet
  facet normal -1 -0 0
    outer loop
      vertex -7.15 12.4 0.9
      vertex -7.15 -12.4 0
      vertex -7.15 -12.4 0.9
    endloop
  endfacet
endsolid OpenSCAD_Model
